<?xml version="1.0" standalone="no"?>
<!DOCTYPE svg PUBLIC "-//W3C//DTD SVG 20010904//EN"
 "http://www.w3.org/TR/2001/REC-SVG-20010904/DTD/svg10.dtd">
<svg version="1.0" xmlns="http://www.w3.org/2000/svg"
 width="264.000000pt" height="264.000000pt" viewBox="0 0 264.000000 264.000000"
 preserveAspectRatio="xMidYMid meet">
<metadata>
Created by potrace 1.11, written by Peter Selinger 2001-2013
</metadata>
<g transform="translate(0.000000,264.000000) scale(0.100000,-0.100000)"
fill="#000000" stroke="none">
<path d="M933 2501 c10 -12 9 -14 -5 -8 -10 3 -22 -1 -30 -11 -11 -15 -11 -15
3 -5 13 10 16 10 16 -2 0 -7 -3 -14 -6 -13 -22 2 -41 -4 -41 -13 0 -5 5 -7 12
-3 7 4 8 3 4 -5 -4 -6 -11 -9 -16 -6 -4 3 -13 -2 -20 -10 -7 -8 -16 -13 -19
-10 -4 2 -8 -2 -8 -10 0 -12 4 -12 21 2 20 18 20 17 6 -2 -8 -11 -22 -26 -30
-33 -8 -8 -10 -11 -3 -8 7 4 11 -1 10 -14 -1 -15 -6 -19 -22 -14 -11 3 -16 2
-10 -3 15 -12 18 -36 4 -27 -8 5 -10 2 -6 -8 3 -10 0 -15 -11 -14 -9 0 -17 -5
-18 -11 -3 -26 -5 -28 -14 -13 -8 12 -10 9 -10 -11 0 -20 -6 -28 -25 -33 -14
-4 -23 -11 -20 -16 6 -10 -16 -50 -28 -50 -4 0 -5 5 -1 12 4 6 3 8 -4 5 -11
-7 -11 -32 1 -43 11 -11 -2 -24 -18 -17 -8 3 -15 0 -15 -6 0 -5 -10 -20 -22
-32 -17 -16 -19 -20 -6 -16 10 3 20 2 23 -4 4 -5 1 -8 -7 -7 -7 2 -12 -3 -10
-11 2 -7 -3 -11 -10 -9 -8 4 -13 -3 -13 -17 0 -13 3 -21 8 -18 6 4 9 -5 6 -23
0 -4 5 -11 13 -16 10 -8 10 -9 -2 -5 -8 2 -14 10 -12 16 1 6 -2 11 -8 11 -16
0 -12 -15 10 -40 24 -28 26 -38 4 -20 -12 11 -15 11 -12 -1 2 -8 7 -17 13 -21
6 -5 5 -12 -4 -20 -11 -11 -13 -11 -6 1 5 9 4 12 -3 7 -16 -10 -15 -43 1 -50
6 -3 2 -3 -10 -1 -12 3 -24 1 -28 -5 -4 -6 -1 -9 6 -8 6 2 14 -3 17 -11 3 -8
0 -11 -7 -7 -7 5 -9 1 -5 -8 3 -9 9 -14 13 -12 9 6 7 -36 -2 -51 -4 -6 -1 -14
5 -17 10 -3 8 -9 -5 -19 -12 -10 -14 -16 -6 -19 20 -7 18 -48 -3 -59 -11 -6
-17 -17 -14 -25 3 -9 -1 -14 -12 -14 -10 0 -13 -3 -7 -8 13 -8 13 -22 1 -41
-7 -11 -10 -11 -17 0 -5 9 -7 3 -5 -16 2 -17 -1 -36 -7 -43 -7 -9 -5 -11 9 -6
18 5 18 5 0 -10 -16 -13 -16 -16 -5 -16 9 0 16 -7 16 -15 0 -12 -3 -12 -15 -2
-13 10 -14 9 -4 -9 6 -12 8 -25 4 -30 -4 -5 1 -3 10 4 14 12 16 10 11 -10 -4
-19 -3 -20 7 -8 9 12 11 9 8 -16 -3 -23 -1 -31 9 -27 7 3 13 -2 13 -11 0 -9 5
-16 11 -16 8 0 7 -6 -2 -17 -12 -14 -12 -16 0 -8 11 6 13 3 8 -14 -4 -18 -3
-20 9 -10 11 9 14 9 14 0 0 -7 5 -9 12 -5 7 4 8 3 4 -5 -7 -11 27 -65 36 -56
8 8 2 -30 -7 -44 -6 -10 -4 -12 5 -6 9 6 10 2 5 -15 -5 -15 -4 -20 4 -16 6 4
11 2 11 -4 0 -6 4 -9 9 -6 5 4 7 -2 4 -13 -3 -11 2 -21 11 -24 10 -4 13 -1 9
9 -3 7 -1 14 4 14 5 0 9 -10 10 -21 1 -12 7 -27 14 -33 9 -8 10 -8 5 2 -9 16
6 16 23 -1 8 -7 11 -7 8 -1 -10 17 26 12 41 -6 9 -12 12 -12 10 -1 -2 7 3 16
11 19 8 2 11 0 8 -5 -3 -5 3 -9 14 -8 11 1 25 8 30 16 8 13 13 6 10 -14 -1 -5
4 -5 11 -1 19 12 39 14 32 3 -3 -5 -10 -6 -16 -3 -7 4 -8 2 -4 -4 4 -6 14 -8
23 -5 11 4 14 3 9 -5 -4 -7 -3 -12 3 -12 5 0 12 6 15 13 3 6 3 2 0 -10 -4 -17
-1 -23 11 -23 11 0 15 -5 12 -15 -4 -8 -1 -17 5 -21 6 -4 8 -3 5 3 -3 5 1 10
9 10 10 0 11 -4 4 -11 -12 -12 -13 -29 -1 -22 8 5 8 -22 1 -31 -8 -10 -3 -30
10 -41 8 -8 11 -11 5 -9 -5 3 -10 -5 -10 -18 0 -12 5 -21 11 -18 6 2 11 -3 11
-11 0 -8 -4 -13 -8 -10 -4 2 -11 -1 -15 -8 -4 -7 -4 -10 1 -6 13 12 35 -12 28
-29 -5 -12 -3 -14 8 -8 11 7 12 6 2 -7 -7 -8 -9 -19 -5 -23 4 -5 1 -5 -6 -1
-7 4 -10 11 -7 16 3 5 1 11 -4 15 -6 3 -8 -3 -5 -15 2 -11 6 -29 8 -39 3 -14
0 -18 -10 -14 -10 4 -12 0 -8 -11 4 -11 0 -16 -15 -17 -12 -1 -27 -2 -33 -3
-7 0 -14 -11 -14 -23 -2 -37 -4 -39 -15 -23 -8 12 -9 10 -4 -9 5 -15 2 -27 -6
-33 -11 -8 -10 -9 3 -5 12 4 16 1 13 -14 -2 -10 -7 -24 -10 -29 -3 -6 2 -7 12
-4 10 3 2 -4 -17 -14 -33 -19 -66 -19 -54 -1 3 5 -2 6 -11 3 -11 -5 -16 -2
-15 7 3 21 -11 59 -21 59 -5 0 -9 -10 -9 -22 0 -18 -2 -20 -9 -8 -6 8 -7 19
-3 25 3 5 -1 4 -10 -2 -8 -7 -17 -10 -21 -7 -3 3 -3 -3 0 -14 2 -11 0 -23 -6
-26 -7 -5 -9 0 -5 11 5 15 4 15 -4 3 -6 -8 -8 -19 -4 -25 10 -14 10 -55 0 -49
-7 5 -12 -11 -9 -29 1 -5 -3 -6 -9 -2 -6 3 -8 10 -5 15 3 5 1 11 -4 14 -5 4
-8 -5 -7 -19 2 -14 -4 -31 -12 -37 -13 -10 -14 -10 -8 0 5 8 -2 15 -18 22 -14
5 -26 12 -26 15 0 4 5 3 11 -1 7 -4 10 -1 7 7 -3 8 -14 12 -24 11 -17 -3 -16
-1 4 16 14 12 19 23 12 27 -5 3 -10 1 -10 -4 0 -6 -4 -11 -8 -11 -4 0 -8 9 -8
19 0 11 4 17 10 14 5 -4 6 5 2 21 -4 17 -3 25 3 22 5 -4 13 -1 17 5 4 8 3 9
-4 5 -11 -7 -17 6 -13 28 1 5 -5 4 -13 -4 -19 -15 -21 -24 -4 -14 7 5 8 3 3
-6 -6 -10 -11 -10 -20 4 -11 15 -13 15 -19 1 -3 -9 -2 -13 4 -10 6 3 10 -1 10
-9 0 -10 -6 -13 -17 -9 -12 5 -14 3 -8 -7 6 -10 4 -12 -10 -6 -15 5 -16 4 -5
-9 11 -13 10 -14 -5 -8 -14 5 -17 3 -12 -10 4 -12 1 -17 -10 -17 -9 0 -13 -3
-10 -7 14 -13 -14 -30 -44 -27 -16 2 -28 0 -25 -4 6 -11 -50 -9 -60 1 -5 4 -1
5 8 2 9 -4 18 0 21 8 3 9 -1 14 -11 13 -9 0 -22 10 -29 24 -11 22 -18 21 -14
-3 1 -5 -3 -6 -8 -3 -5 4 -11 3 -14 -1 -2 -5 -2 -3 -1 4 2 7 -2 15 -8 19 -6 4
-8 3 -5 -3 4 -6 0 -16 -7 -22 -11 -9 -16 -9 -22 0 -5 8 -3 10 7 4 8 -5 11 -4
6 0 -4 5 -16 9 -27 10 -19 2 -19 1 -3 -19 14 -15 14 -18 2 -8 -9 6 -19 9 -22
5 -4 -3 -7 -1 -7 5 0 6 -8 11 -17 11 -39 1 -52 5 -47 13 3 5 11 5 17 1 7 -3 4
3 -6 14 -9 11 -14 23 -10 28 5 4 -2 2 -14 -5 -12 -8 -19 -20 -16 -29 4 -14 3
-14 -9 0 -12 14 -15 14 -33 -4 -20 -20 -20 -20 3 -8 12 7 22 8 22 2 0 -5 -6
-12 -12 -14 -10 -4 -10 -8 0 -15 11 -7 11 -10 -3 -15 -10 -5 -14 -3 -9 5 4 7
3 8 -5 4 -9 -6 -9 -11 -1 -21 10 -12 8 -13 -10 -10 -19 4 -20 2 -8 -12 9 -12
9 -15 1 -9 -8 4 -13 2 -13 -4 0 -6 -5 -8 -10 -5 -6 4 -7 11 -4 17 4 7 2 8 -5
4 -6 -4 -9 -12 -6 -17 4 -5 -2 -9 -12 -9 -15 0 -16 -2 -3 -10 20 -13 4 -13
-20 0 -16 8 -18 8 -14 -5 4 -8 10 -15 14 -15 4 0 11 -7 14 -16 5 -13 4 -14 -7
-6 -10 9 -14 8 -14 -3 0 -7 3 -14 6 -13 34 3 61 -4 55 -14 -5 -9 -2 -9 9 1 10
8 17 9 17 3 0 -6 13 -10 29 -9 23 2 28 6 27 27 -1 19 4 24 18 22 10 -2 15 1
12 6 -3 5 3 12 14 15 11 3 18 1 14 -4 -3 -5 5 -9 18 -9 13 0 19 -4 13 -8 -5
-4 -10 -14 -11 -22 -1 -12 10 -15 45 -14 25 1 51 -3 58 -8 7 -6 14 -5 18 2 3
6 11 7 17 4 6 -4 8 -2 4 4 -3 6 -1 14 5 18 8 4 9 3 5 -4 -4 -8 0 -12 11 -12
15 0 16 -2 3 -11 -13 -9 -13 -10 1 -6 9 3 21 1 26 -4 6 -6 10 -4 10 5 0 8 -5
12 -10 9 -6 -4 -7 -1 -2 7 6 10 11 9 22 -5 7 -11 13 -13 13 -7 0 7 15 12 36
12 21 0 33 4 29 10 -3 6 -1 10 5 10 6 0 8 5 4 13 -5 7 0 6 11 -3 19 -15 22
-15 42 1 7 7 14 6 18 -1 4 -6 1 -9 -6 -8 -6 2 -14 -4 -16 -12 -4 -13 -3 -13 6
0 6 8 11 11 11 6 0 -5 6 -3 13 3 11 8 18 6 32 -9 14 -15 21 -17 32 -9 10 9 13
8 13 -5 0 -18 15 -21 26 -5 4 8 9 7 15 -2 7 -12 10 -12 21 0 9 10 10 12 1 7
-9 -5 -11 -2 -7 9 5 11 10 13 19 5 11 -9 12 -7 8 8 -2 11 1 23 8 27 8 5 10 4
5 -3 -5 -8 4 -10 29 -7 29 4 34 2 32 -13 -1 -9 2 -18 7 -19 5 -1 12 -6 16 -12
4 -8 13 -5 28 7 12 11 18 22 15 26 -4 4 0 4 10 0 9 -3 15 -10 12 -14 -3 -4 2
-10 10 -13 10 -4 12 -1 9 11 -2 9 1 7 7 -5 17 -32 31 -29 19 5 l-10 27 19 -24
c15 -20 20 -22 27 -9 5 8 19 17 32 20 14 4 20 2 15 -5 -4 -7 0 -8 12 -3 11 4
22 2 27 -6 5 -9 8 -5 8 12 1 25 1 25 10 2 5 -12 12 -22 14 -22 3 0 3 6 0 13
-4 10 3 12 26 9 20 -3 30 0 30 9 0 7 3 9 6 6 4 -4 1 -14 -7 -24 -9 -10 -9 -14
-2 -9 7 4 22 2 34 -5 13 -6 19 -7 15 -1 -3 6 -1 14 5 18 8 4 9 3 5 -4 -4 -7 3
-17 18 -23 14 -7 23 -15 21 -20 -3 -4 -1 -10 4 -14 6 -3 8 -13 5 -23 -5 -14
-3 -14 6 2 10 14 10 20 0 26 -8 5 -9 10 -2 14 6 4 8 14 5 23 -4 10 -2 14 4 10
7 -5 9 1 6 15 -4 19 -3 20 6 8 6 -8 11 -11 11 -6 0 5 6 3 13 -3 10 -8 14 -7
14 4 0 8 -5 15 -10 15 -6 0 -7 3 -4 7 4 3 16 -3 27 -15 16 -17 25 -19 49 -12
25 7 29 6 24 -8 -4 -13 -2 -13 9 2 18 23 83 30 99 10 19 -23 22 -70 4 -72 -8
-1 -21 -3 -28 -4 -8 -1 -14 -7 -14 -15 0 -17 14 -17 20 0 4 9 6 9 6 0 1 -7 -9
-17 -20 -24 -15 -8 -19 -8 -15 0 4 6 2 11 -3 11 -17 0 -13 -32 7 -47 9 -7 12
-12 6 -11 -7 2 -12 -1 -13 -7 -1 -5 7 -10 17 -10 11 0 16 7 14 19 -2 12 1 16
9 10 7 -4 10 -3 6 3 -4 6 -4 25 -1 41 5 23 11 30 25 27 11 -2 17 0 14 6 -4 5
2 9 12 10 14 0 13 2 -5 10 -19 7 -23 29 -6 29 3 0 2 -4 -1 -10 -3 -5 3 -10 13
-10 14 0 19 5 16 17 -3 11 4 23 17 31 16 10 19 10 13 1 -5 -9 -2 -11 8 -6 9 3
19 3 23 -1 4 -4 12 -7 18 -7 7 0 11 -12 11 -28 -1 -15 3 -27 7 -27 5 0 9 6 9
13 0 8 4 7 10 -3 9 -13 11 -13 20 0 8 12 10 12 10 -5 0 -16 2 -17 9 -5 6 8 7
19 3 25 -3 5 2 4 11 -3 9 -8 20 -11 26 -8 5 3 8 -5 6 -19 -1 -14 2 -28 7 -31
4 -3 5 -11 1 -17 -4 -7 0 -6 10 2 18 14 23 26 8 16 -5 -3 -12 -1 -16 5 -5 9 7
14 27 11 8 -1 -2 31 -12 39 -3 3 2 13 12 23 10 9 18 13 18 7 0 -5 5 -10 11
-10 5 0 7 6 3 13 -4 7 -3 9 2 4 5 -5 9 -14 9 -19 0 -6 6 -13 14 -16 8 -3 11 0
7 6 -3 6 -1 14 5 18 7 4 9 3 5 -4 -3 -6 -2 -13 4 -17 6 -4 7 -11 4 -17 -4 -7
-2 -8 5 -4 6 4 9 11 6 16 -3 5 0 12 6 16 7 4 9 3 6 -3 -4 -6 0 -16 8 -23 13
-11 14 -10 8 6 -6 16 -4 17 9 7 8 -7 18 -10 21 -6 4 3 7 1 7 -5 0 -6 9 -9 20
-7 22 4 28 -10 7 -19 -6 -3 -3 -4 8 -3 12 1 19 -3 17 -11 -1 -8 2 -11 8 -7 6
3 8 11 4 16 -3 6 2 9 12 7 14 -2 19 3 18 19 -1 18 2 20 22 13 24 -9 51 9 36
25 -4 5 -1 5 6 1 7 -5 11 -15 7 -24 -4 -12 -1 -12 16 4 20 17 22 17 16 2 -9
-26 2 -22 13 4 7 19 9 20 9 4 1 -11 6 -16 15 -13 7 3 19 0 25 -6 9 -9 11 -8 6
6 -9 22 4 22 22 0 8 -10 11 -12 7 -4 -4 9 -2 12 7 9 8 -3 13 -11 11 -17 -1 -7
2 -10 8 -6 6 3 8 11 5 16 -4 5 -2 9 4 9 5 0 12 -6 14 -12 4 -10 6 -10 6 0 1 6
6 12 12 12 5 0 8 -4 4 -9 -10 -18 13 -21 26 -4 8 10 9 14 2 10 -11 -7 -27 8
-28 28 -1 6 -6 9 -13 7 -7 -1 -12 3 -12 9 0 6 -7 9 -14 6 -10 -4 -13 -1 -9 9
3 8 -1 14 -8 14 -12 0 -12 2 0 9 8 5 11 16 7 27 -6 18 -5 17 9 0 15 -19 15
-19 15 5 0 19 2 21 10 9 5 -8 10 -10 10 -4 0 6 -7 17 -16 24 -12 11 -15 11
-12 -1 2 -8 -4 -13 -13 -11 -9 1 -19 -5 -23 -13 -3 -9 -2 -13 4 -10 6 3 10 1
10 -4 0 -14 -17 -14 -25 0 -4 6 -13 8 -21 5 -15 -6 -7 24 10 36 7 5 7 8 -1 8
-7 0 -13 5 -13 11 0 5 5 7 10 4 6 -3 10 -1 10 5 0 7 6 10 13 7 8 -3 12 7 12
32 -1 55 10 72 40 61 18 -7 23 -6 19 4 -3 7 2 13 10 13 8 0 12 -5 9 -10 -3 -5
0 -7 8 -5 8 3 13 11 11 17 -1 7 2 10 8 6 6 -3 8 -10 5 -15 -3 -5 -1 -12 5 -15
6 -4 9 -1 8 7 -2 7 2 12 8 11 6 -1 10 12 9 31 -2 34 27 82 44 72 5 -3 8 5 6
19 -1 14 2 28 8 32 6 3 7 1 3 -5 -3 -6 -2 -13 3 -16 5 -4 11 6 13 21 2 16 8
27 14 26 6 -1 10 9 9 22 -2 16 1 22 10 18 8 -2 11 -12 9 -21 -4 -12 -1 -11 7
3 18 27 22 65 9 65 -6 0 -8 -5 -5 -10 3 -6 1 -10 -5 -10 -7 0 -9 8 -5 20 4 13
2 20 -7 20 -8 0 -6 5 5 11 18 11 14 29 -6 29 -7 0 -6 -4 3 -10 13 -8 12 -10
-4 -10 -13 0 -17 5 -13 20 5 18 -4 25 -26 21 -5 -1 -6 3 -2 9 4 6 1 18 -7 27
-9 12 -9 15 0 9 15 -9 17 55 2 70 -7 7 -6 11 4 11 8 0 12 -5 9 -10 -3 -6 -1
-7 6 -3 8 6 9 12 2 20 -6 7 -8 16 -4 20 4 3 -3 15 -15 26 -27 25 -28 31 -4 24
15 -5 15 -4 1 8 -17 14 -14 42 3 32 7 -4 8 -2 4 4 -4 6 -12 9 -20 6 -7 -3 -13
2 -13 10 0 8 3 13 7 11 4 -2 7 2 7 10 0 18 -9 19 -27 3 -11 -10 -11 -9 0 7 8
11 20 24 25 28 6 4 -3 5 -20 2 -16 -3 -24 -2 -17 1 6 3 12 13 12 22 0 15 -2
15 -10 2 -9 -13 -10 -13 -11 0 -1 8 -1 19 0 24 1 5 -5 6 -14 2 -11 -4 -16 -1
-14 12 3 31 -1 35 -18 21 -11 -10 -14 -10 -9 -1 4 7 1 12 -9 12 -9 0 -13 4
-10 10 3 5 -1 20 -10 33 -8 13 -12 27 -8 32 5 4 2 5 -5 1 -7 -4 -9 -12 -6 -18
4 -6 3 -8 -3 -5 -6 4 -9 17 -8 30 2 12 -3 31 -11 42 -8 10 -14 14 -14 9 0 -6
3 -14 8 -20 4 -5 -5 3 -19 18 -15 16 -34 28 -43 28 -28 0 -65 -30 -59 -47 5
-12 -2 -14 -37 -12 -29 2 -46 -1 -54 -12 -6 -8 -19 -18 -29 -22 -10 -4 -15
-11 -12 -17 3 -5 2 -10 -4 -10 -5 0 -12 6 -15 13 -3 6 -4 -1 -1 -18 2 -16 2
-24 -1 -17 -3 6 -11 9 -16 6 -6 -4 -8 -2 -4 4 3 6 1 14 -5 18 -8 4 -9 3 -5 -4
4 -7 3 -12 -3 -12 -6 0 -7 -8 -4 -17 6 -15 4 -16 -8 -6 -10 8 -19 9 -29 1 -12
-8 -12 -9 3 -4 21 7 23 -10 1 -18 -9 -4 -14 -13 -10 -21 5 -14 -5 -20 -27 -16
-4 1 -3 -8 4 -20 8 -15 8 -19 0 -15 -11 7 -15 -5 -12 -34 2 -13 1 -13 -8 0 -5
8 -7 19 -4 25 3 5 0 4 -8 -3 -7 -7 -14 -22 -14 -35 0 -12 -5 -21 -12 -20 -7 2
-10 -3 -7 -10 2 -7 -4 -21 -15 -31 -11 -10 -17 -25 -14 -34 5 -11 3 -13 -8 -7
-12 8 -12 6 0 -9 12 -15 12 -17 0 -14 -8 2 -13 -3 -11 -9 1 -7 -2 -13 -8 -13
-5 0 -10 5 -10 12 0 6 -3 8 -6 5 -4 -4 -1 -14 7 -24 8 -9 9 -14 4 -11 -6 4
-16 -2 -23 -12 -9 -14 -9 -21 0 -26 6 -4 8 -3 5 3 -3 5 0 10 8 10 11 0 12 -3
3 -14 -6 -8 -18 -11 -26 -8 -13 5 -13 3 -1 -12 8 -9 9 -14 3 -10 -7 4 -17 0
-24 -8 -7 -8 -16 -12 -21 -9 -5 3 -10 0 -10 -5 -3 -21 -4 -26 -13 -40 -6 -9
-5 -12 1 -8 7 4 9 -8 8 -33 -1 -21 1 -39 4 -38 3 0 13 0 21 -2 11 -1 9 -4 -5
-10 -17 -7 -17 -9 -2 -9 9 -1 17 -6 17 -12 0 -5 -5 -7 -12 -3 -7 4 -8 3 -4 -5
6 -9 11 -9 21 -1 9 8 13 7 12 -2 -1 -37 4 -62 11 -51 5 8 12 9 22 2 11 -8 12
-12 2 -16 -6 -2 -9 -9 -6 -15 4 -6 10 -5 16 3 7 11 11 11 15 2 2 -7 9 -13 14
-13 6 0 7 5 3 12 -4 7 -3 8 4 4 6 -4 9 -13 5 -21 -3 -8 -1 -15 5 -15 6 0 12 5
14 12 3 7 7 5 11 -6 4 -10 3 -15 -3 -11 -6 3 -10 2 -10 -3 0 -13 29 -24 43
-15 7 3 9 3 5 -2 -4 -4 0 -14 10 -22 9 -8 12 -12 6 -9 -6 3 -11 -1 -11 -9 0
-10 5 -11 19 -4 12 6 18 6 18 -1 0 -5 -5 -10 -11 -10 -5 0 -7 -5 -3 -12 5 -7
2 -9 -8 -6 -8 4 -15 0 -15 -8 0 -7 4 -11 8 -8 4 2 11 -1 15 -7 4 -7 3 -9 -3
-6 -12 8 -26 -20 -18 -34 4 -5 -1 -6 -10 -3 -11 5 -14 2 -9 -10 3 -9 11 -16
17 -16 5 0 0 -9 -13 -20 -13 -11 -27 -20 -32 -20 -5 0 -6 -5 -2 -12 4 -7 3 -8
-5 -4 -6 4 -8 13 -5 19 5 9 3 9 -6 0 -11 -10 -11 -15 1 -30 12 -16 11 -15 -9
1 -16 14 -22 15 -22 5 0 -8 -7 -4 -16 10 -12 16 -19 20 -27 12 -14 -14 -30
-14 -22 -1 3 6 0 10 -7 10 -9 0 -9 3 2 10 11 7 11 10 2 10 -7 0 -10 5 -7 10 3
6 -2 10 -12 10 -15 0 -16 2 -3 10 8 5 10 10 4 10 -19 0 -24 -13 -11 -28 8 -11
8 -14 0 -9 -6 4 -18 5 -25 2 -14 -6 -16 -12 -20 -56 -2 -19 -3 -19 -15 -3 -7
9 -10 21 -6 27 3 6 1 7 -6 3 -6 -4 -8 -12 -5 -18 4 -6 2 -8 -4 -4 -5 3 -12 0
-15 -6 -3 -7 -5 -2 -4 12 0 14 4 30 9 36 6 8 -1 19 -19 32 -25 19 -26 20 -5
15 12 -3 22 -1 22 4 0 19 -35 7 -63 -21 -16 -16 -34 -25 -43 -22 -12 4 -12 2
-4 -14 9 -16 7 -18 -10 -15 -11 2 -23 -1 -26 -7 -5 -7 -2 -8 6 -3 8 5 11 3 8
-6 -6 -17 -28 -19 -47 -5 -11 8 -13 8 -7 -2 6 -10 2 -10 -18 0 -14 6 -26 16
-26 21 0 5 7 4 15 -3 14 -11 14 -10 6 13 -9 22 -8 25 7 20 9 -3 14 -3 10 2
-10 10 11 47 22 40 12 -7 30 24 30 53 0 4 5 0 10 -8 7 -12 9 -10 7 7 -1 21 -3
21 -19 6 -9 -8 -17 -18 -16 -22 2 -19 -3 -31 -11 -26 -5 3 -12 1 -16 -5 -4 -6
-11 -7 -17 -4 -6 4 -1 12 13 20 30 17 19 18 -16 2 -24 -11 -25 -12 -8 -32 13
-15 11 -15 -10 3 -15 14 -27 29 -27 35 0 6 5 4 11 -4 7 -11 9 -6 7 20 -1 19 2
41 6 48 4 7 5 16 2 19 -3 4 -6 1 -6 -7 0 -9 -3 -10 -13 -1 -10 8 -17 7 -26 -2
-11 -10 -12 -7 -6 12 5 18 4 22 -6 16 -9 -6 -11 -3 -6 8 4 10 -1 21 -11 27
-16 11 -16 11 0 6 10 -3 20 0 24 6 4 6 3 8 -3 5 -6 -4 -14 0 -17 9 -3 8 -9 13
-13 11 -5 -3 -8 6 -8 19 0 30 3 30 15 1 6 -16 9 -17 9 -5 1 9 -4 20 -9 23 -6
4 -8 11 -5 16 4 5 -2 6 -12 2 -16 -6 -17 -5 -3 12 14 17 13 17 -10 12 -14 -4
-19 -4 -12 -1 10 5 10 9 1 20 -9 11 -8 15 5 20 9 3 16 10 16 16 0 5 -6 6 -12
3 -7 -4 -6 -1 2 7 17 15 24 38 12 38 -5 0 -9 7 -9 15 0 8 5 15 11 15 6 0 0 7
-12 16 -23 16 -29 34 -12 34 5 0 9 -5 7 -11 -1 -6 5 -14 13 -16 13 -4 13 -3 0
6 -8 6 -11 11 -6 11 6 0 0 9 -12 21 -21 19 -22 46 -1 34 8 -6 13 8 10 27 0 4
7 4 17 1 15 -6 16 -5 2 12 -8 10 -10 16 -3 12 12 -8 37 25 27 35 -2 3 7 4 20
3 27 -3 52 18 41 35 -4 6 -3 10 2 9 18 -3 36 1 30 8 -4 3 1 11 10 18 13 9 13
14 3 20 -8 5 -11 4 -7 -2 3 -5 0 -10 -8 -10 -11 0 -12 3 -3 14 6 8 16 12 23 9
6 -2 12 2 12 10 0 7 -5 10 -10 7 -6 -4 -7 -1 -3 6 5 7 14 10 22 7 8 -3 14 0
14 5 0 6 8 9 18 7 10 -3 27 1 38 10 15 12 16 14 2 9 -12 -4 -15 -2 -11 8 3 8
9 12 14 9 5 -3 14 -2 20 2 8 4 7 9 -2 15 -11 7 -11 9 -1 9 7 0 11 4 8 9 -3 5
2 8 11 7 9 0 18 5 20 12 3 8 -2 10 -14 6 -10 -3 -14 -2 -7 3 5 4 10 22 9 40
-1 27 2 30 14 20 12 -10 13 -9 3 10 -9 16 -9 24 0 29 6 4 8 3 4 -4 -3 -6 -2
-13 3 -16 6 -4 8 6 6 24 -2 16 1 32 6 36 7 4 6 10 -1 19 -8 10 -8 15 1 21 8 5
9 3 4 -6 -6 -9 -4 -11 5 -5 10 6 9 11 -6 23 -18 14 -18 14 4 9 30 -7 28 1 -3
13 -22 8 -23 13 -15 35 6 17 6 25 -1 25 -6 0 -7 5 -3 12 4 6 3 8 -2 5 -6 -3
-15 3 -22 13 -7 12 -8 21 -2 25 15 9 12 22 -6 29 -14 5 -15 4 -4 -9 8 -10 9
-15 1 -15 -10 0 -15 13 -13 32 1 3 -5 12 -13 18 -8 7 -15 21 -15 31 0 11 -5
19 -11 19 -5 0 -8 4 -5 9 3 5 -1 14 -9 21 -8 7 -12 16 -9 21 3 5 -1 6 -9 3 -8
-3 -20 3 -28 12 -12 15 -12 18 0 22 9 3 4 9 -15 18 -25 12 -26 13 -4 8 l25 -6
-25 18 c-14 11 -28 18 -32 17 -4 -2 -5 4 -2 12 4 8 11 12 17 8 6 -4 7 -1 3 6
-5 7 -15 10 -23 6 -14 -5 -14 -3 -2 12 12 15 12 16 -6 10 -17 -6 -18 -5 -5 5
9 7 15 19 14 26 -1 6 -2 17 -3 22 0 6 -6 10 -12 10 -8 0 -8 -4 0 -14 9 -10 9
-16 1 -21 -6 -4 -14 -4 -17 -1 -4 3 -1 6 7 6 9 0 10 3 1 13 -8 10 -7 17 1 25
9 9 9 12 -1 12 -11 0 -11 3 0 17 10 11 10 14 2 9 -7 -4 -13 -3 -13 1 0 5 -10
13 -22 18 -13 6 -22 18 -22 27 1 10 -7 20 -17 23 -11 4 -19 11 -19 16 0 6 -4
7 -10 4 -5 -3 -10 -1 -10 4 0 6 6 11 13 12 6 0 1 5 -12 10 -18 7 -21 13 -13
21 8 8 7 15 -4 25 -8 8 -12 18 -9 23 3 5 -4 8 -15 7 -11 -1 -20 -5 -20 -10 0
-8 -23 16 -56 58 -15 19 -15 19 -4 -2 6 -13 7 -23 1 -23 -5 0 -12 7 -15 16 -3
9 -11 12 -18 8 -9 -6 -9 -3 0 9 12 14 11 16 -10 12 -21 -4 -22 -3 -5 9 16 12
16 14 2 20 -9 3 -13 2 -10 -4 3 -6 1 -10 -4 -10 -6 0 -11 5 -11 10 0 6 -5 10
-11 10 -5 0 -7 -5 -3 -12 4 -7 3 -8 -4 -4 -6 4 -9 12 -6 19 3 8 -8 12 -33 13
-21 1 -32 -1 -25 -3 6 -3 12 -9 12 -15 0 -7 -5 -7 -13 1 -8 6 -16 8 -20 5 -3
-3 -3 3 0 15 4 15 1 21 -11 21 -10 0 -14 5 -11 10 3 6 2 10 -4 10 -6 0 -13 11
-17 24 -5 20 -11 23 -49 22 -37 0 -42 -3 -32 -15z m391 -227 c3 -8 2 -12 -4
-9 -6 3 -10 10 -10 16 0 14 7 11 14 -7z m-599 -74 c3 -5 1 -10 -4 -10 -6 0
-11 5 -11 10 0 6 2 10 4 10 3 0 8 -4 11 -10z m-75 -114 c0 -3 -4 -8 -10 -11
-5 -3 -10 -1 -10 4 0 6 5 11 10 11 6 0 10 -2 10 -4z m929 -250 c9 -11 9 -16 0
-22 -8 -4 -9 -3 -5 4 4 7 2 12 -3 12 -6 0 -11 5 -11 10 0 14 5 13 19 -4z
m-1037 -344 c-7 -2 -9 -9 -6 -14 4 -7 2 -8 -4 -4 -6 4 -9 13 -6 21 4 8 11 12
17 8 8 -5 7 -8 -1 -11z m1874 -114 c3 -4 -1 -5 -10 -4 -8 1 -18 5 -22 8 -3 4
1 5 10 4 8 -1 18 -5 22 -8z m-821 -88 c3 -6 -1 -7 -9 -4 -18 7 -21 14 -7 14 6
0 13 -4 16 -10z m335 -135 c-15 -16 -19 -25 -10 -25 7 0 11 -3 7 -6 -3 -3 -11
-3 -17 1 -7 4 -2 16 12 34 13 16 25 27 27 25 3 -2 -6 -15 -19 -29z m-465 6 c3
-5 2 -12 -3 -15 -5 -3 -9 1 -9 9 0 17 3 19 12 6z m-588 -126 c0 -8 -4 -12 -9
-9 -5 3 -6 10 -3 15 9 13 12 11 12 -6z m933 -90 c0 -2 -6 -8 -13 -14 -10 -8
-14 -7 -14 2 0 8 6 14 14 14 7 0 13 -1 13 -2z m-810 -331 c0 -8 -19 -13 -24
-6 -3 5 1 9 9 9 8 0 15 -2 15 -3z m-775 -114 c3 -5 1 -10 -4 -10 -6 0 -11 5
-11 10 0 6 2 10 4 10 3 0 8 -4 11 -10z m630 0 c3 -5 1 -10 -4 -10 -6 0 -11 5
-11 10 0 6 2 10 4 10 3 0 8 -4 11 -10z m921 -33 c0 -13 -6 -24 -13 -24 -8 0
-8 7 0 24 13 29 15 29 13 0z m92 -32 c-3 -3 -9 2 -12 12 -6 14 -5 15 5 6 7 -7
10 -15 7 -18z m-1001 -69 c0 -8 -6 -12 -15 -9 -11 5 -11 7 0 14 7 5 13 9 14 9
0 0 1 -6 1 -14z m583 -22 c0 -8 -19 -13 -24 -6 -3 5 1 9 9 9 8 0 15 -2 15 -3z
m-547 -19 c-3 -9 -8 -14 -10 -11 -3 3 -2 9 2 15 9 16 15 13 8 -4z m-724 -16
c-19 -12 -29 -11 -29 2 0 5 5 7 10 4 6 -3 10 -1 10 5 0 6 5 8 11 4 8 -4 7 -9
-2 -15z m221 6 c0 -12 -19 -12 -23 0 -4 9 -1 12 9 8 7 -3 14 -7 14 -8z m310 5
c0 -5 -2 -10 -4 -10 -3 0 -8 5 -11 10 -3 6 -1 10 4 10 6 0 11 -4 11 -10z
m1694 -1 c-2 -3 -15 -6 -30 -6 -17 0 -22 2 -13 7 15 10 49 9 43 -1z m-214 -19
c0 -5 -2 -10 -4 -10 -3 0 -8 5 -11 10 -3 6 -1 10 4 10 6 0 11 -4 11 -10z m-59
-27 c13 -16 12 -17 -3 -4 -17 13 -22 21 -14 21 2 0 10 -8 17 -17z"/>
<path d="M1020 2501 c0 -6 4 -13 10 -16 6 -3 7 1 4 9 -7 18 -14 21 -14 7z"/>
<path d="M1260 2337 c0 -2 6 -10 14 -16 11 -9 16 -9 22 1 4 7 4 10 -1 6 -4 -4
-14 -3 -22 3 -7 6 -13 9 -13 6z"/>
<path d="M1415 2161 c-3 -5 -2 -12 3 -15 5 -3 9 1 9 9 0 17 -3 19 -12 6z"/>
<path d="M556 1632 c-3 -5 1 -9 9 -9 8 0 12 4 9 9 -3 4 -7 8 -9 8 -2 0 -6 -4
-9 -8z"/>
<path d="M1673 1405 c0 -8 4 -12 9 -9 5 3 6 10 3 15 -9 13 -12 11 -12 -6z"/>
<path d="M626 1187 c3 -10 9 -15 12 -12 3 3 0 11 -7 18 -10 9 -11 8 -5 -6z"/>
<path d="M1383 1053 c4 -3 1 -13 -6 -22 -11 -14 -10 -14 5 -2 16 12 16 31 1
31 -4 0 -3 -3 0 -7z"/>
<path d="M1365 840 c3 -5 8 -10 11 -10 2 0 4 5 4 10 0 6 -5 10 -11 10 -5 0 -7
-4 -4 -10z"/>
<path d="M1630 680 c0 -5 5 -10 11 -10 5 0 7 5 4 10 -3 6 -8 10 -11 10 -2 0
-4 -4 -4 -10z"/>
<path d="M2514 658 c-13 -20 -13 -37 -1 -45 7 -3 9 -3 5 2 -4 4 -3 16 3 27 12
22 5 36 -7 16z"/>
<path d="M206 561 c-3 -5 0 -11 7 -14 8 -3 14 1 14 9 0 16 -13 19 -21 5z"/>
<path d="M1963 555 c0 -8 4 -12 9 -9 5 3 6 10 3 15 -9 13 -12 11 -12 -6z"/>
<path d="M2367 556 c-4 -10 -1 -13 8 -9 8 3 12 9 9 14 -7 12 -11 11 -17 -5z"/>
<path d="M1610 519 c0 -5 -5 -7 -12 -3 -7 4 -8 3 -4 -4 4 -6 13 -9 21 -6 8 4
12 10 9 15 -7 12 -14 11 -14 -2z"/>
<path d="M2360 501 c0 -6 4 -13 10 -16 6 -3 7 1 4 9 -7 18 -14 21 -14 7z"/>
<path d="M421 490 c-1 -23 15 -45 23 -31 4 6 3 11 -3 11 -5 0 -12 8 -14 18 -3
12 -5 13 -6 2z"/>
<path d="M1949 483 c-13 -16 -12 -17 4 -4 16 13 21 21 13 21 -2 0 -10 -8 -17
-17z"/>
<path d="M476 444 c-23 -23 -20 -30 4 -9 11 10 20 20 20 22 0 7 -9 2 -24 -13z"/>
<path d="M509 443 c-13 -16 -12 -17 4 -4 16 13 21 21 13 21 -2 0 -10 -8 -17
-17z"/>
<path d="M755 449 c-4 -6 -5 -12 -2 -15 2 -3 7 2 10 11 7 17 1 20 -8 4z"/>
<path d="M45 439 c-4 -6 -5 -12 -2 -15 2 -3 7 2 10 11 7 17 1 20 -8 4z"/>
<path d="M6 418 c3 -5 10 -6 15 -3 13 9 11 12 -6 12 -8 0 -12 -4 -9 -9z"/>
<path d="M30 402 c0 -4 10 -9 22 -9 18 -2 20 0 8 7 -18 12 -30 13 -30 2z"/>
<path d="M710 401 c0 -6 4 -13 10 -16 6 -3 7 1 4 9 -7 18 -14 21 -14 7z"/>
<path d="M1545 331 c-3 -5 -2 -12 3 -15 5 -3 9 1 9 9 0 17 -3 19 -12 6z"/>
<path d="M1577 319 c4 -13 8 -18 11 -10 2 7 -1 18 -6 23 -8 8 -9 4 -5 -13z"/>
<path d="M586 318 c3 -5 10 -6 15 -3 13 9 11 12 -6 12 -8 0 -12 -4 -9 -9z"/>
<path d="M1666 322 c-3 -5 1 -9 9 -9 8 0 12 4 9 9 -3 4 -7 8 -9 8 -2 0 -6 -4
-9 -8z"/>
<path d="M1720 310 c-9 -6 -10 -10 -3 -10 6 0 15 5 18 10 8 12 4 12 -15 0z"/>
<path d="M1895 300 c-3 -5 -1 -10 4 -10 6 0 11 5 11 10 0 6 -2 10 -4 10 -3 0
-8 -4 -11 -10z"/>
<path d="M511 284 c0 -11 3 -14 6 -6 3 7 2 16 -1 19 -3 4 -6 -2 -5 -13z"/>
<path d="M1290 280 c0 -5 5 -10 11 -10 5 0 7 5 4 10 -3 6 -8 10 -11 10 -2 0
-4 -4 -4 -10z"/>
<path d="M1827 269 c7 -7 15 -10 18 -7 3 3 -2 9 -12 12 -14 6 -15 5 -6 -5z"/>
<path d="M1362 258 c-15 -15 -15 -28 0 -28 6 0 8 3 5 7 -4 3 -2 12 4 20 14 16
7 17 -9 1z"/>
<path d="M1653 235 c0 -8 4 -12 9 -9 4 3 8 9 8 15 0 5 -4 9 -8 9 -5 0 -9 -7
-9 -15z"/>
<path d="M1895 221 c-3 -5 -2 -12 3 -15 5 -3 9 1 9 9 0 17 -3 19 -12 6z"/>
</g>
</svg>
